<?xml version="1.0" encoding="UTF-8" standalone="no"?>
<svg width="300px" height="300px" viewBox="0 0 300 300" version="1.1" xmlns="http://www.w3.org/2000/svg" xmlns:xlink="http://www.w3.org/1999/xlink">
    <!-- Generator: Sketch 45.1 (43504) - http://www.bohemiancoding.com/sketch -->
    <title>Artboard</title>
    <desc>Created with Sketch.</desc>
    <defs></defs>
    <g id="Page-1" stroke="none" stroke-width="1" fill="none" fill-rule="evenodd">
        <g id="Artboard">
            <g id="lollapalooza-logo" transform="translate(10.000000, 29.000000)">
                <g id="_1L" transform="translate(0.000000, 89.873741)" fill-rule="nonzero">
                    <path d="M0,12.4609744 L3.18897451,138.712998 C3.18897451,138.712998 5.30624448,148.802704 19.1077079,149.325487 C32.9091714,149.84827 125.206458,151.704148 125.206458,151.704148 C126.018654,151.872069 126.863801,151.6811 127.524887,151.180277 C128.185974,150.679453 128.598604,149.917562 128.656824,149.090235 C128.918216,145.90126 128.656824,121.774838 128.656824,121.774838 C128.656824,121.774838 127.87265,118.585864 124.945067,118.585864 C122.017484,118.585864 39.0518682,124.258056 36.0720068,123.813691 C33.0921454,123.369326 28.2302662,123.290908 27.2892573,118.08922 C25.0151525,106.195914 37.7449114,3.65208576 37.7449114,3.65208576 C37.7449114,3.65208576 38.0063028,0.724502604 33.7717629,0.724502604 C29.5372229,0.724502604 4.31295733,10.2914261 4.31295733,10.2914261 C4.31295733,10.2914261 0.993287143,10.265287 0,12.4609744 Z" id="Shape" fill="#FFFFFF"></path>
                    <path d="M16.4415161,16.0420359 L11.5534978,133.249919 C11.5534978,133.249919 12.7036198,139.288059 17.0949945,139.052807 C21.4863693,138.817555 116.920352,136.125224 116.920352,136.125224 C117.522482,135.950594 117.950875,135.417715 117.992057,134.792128 C117.980783,134.110719 117.586393,133.493853 116.972631,133.197641 L17.6439164,136.125224 C17.6439164,136.125224 14.1412722,135.419467 14.1412722,133.014667 C14.1412722,130.609866 19.2384036,16.0681751 19.2384036,16.0681751 C19.2384036,16.0681751 18.9770123,14.8657748 17.9053077,14.7873574 C16.8336032,14.70894 16.4415161,16.0420359 16.4415161,16.0420359 Z" id="Shape" fill="#EF4A24"></path>
                </g>
                <g id="_2O" transform="translate(34.981556, 128.081763)">
                    <path d="M89.4668671,16.1017074 C89.4668671,16.1017074 89.9635107,7.16212309 74.9335079,4.05156598 C59.903505,0.941008873 23.8837765,0.444365301 23.8837765,0.444365301 C23.8837765,0.444365301 10.1084522,2.06499169 6.13530362,11.3705239 L0.0448850851,63.4135424 C0.0448850851,63.4135424 0.41083298,77.9469016 16.434123,77.5809537 C32.4574129,77.2150058 74.6721165,71.9871788 74.6721165,71.9871788 C74.6721165,71.9871788 88.0814929,68.5106738 89.440728,58.708498 C90.799963,48.9063222 89.4668671,16.1017074 89.4668671,16.1017074 Z M70.7251071,51.6247923 C70.7251071,51.6247923 69.4181503,57.6106543 60.5308443,58.316411 C55.9679277,58.7737694 51.3707149,58.7737694 46.8077982,58.316411 C46.8077982,58.316411 40.0639013,57.6106543 39.1751707,52.6180795 C38.2864401,47.6255046 38.6785271,27.8643183 38.6785271,27.8643183 C38.6785271,27.8643183 39.3842838,23.2638305 46.8339374,22.0614302 C53.0551615,21.4040787 59.3283342,21.4040787 65.5495583,22.0614302 C65.5495583,22.0614302 72.633264,24.0480045 72.7378205,27.4460921 C72.842377,30.8441797 70.6989679,51.6509315 70.6989679,51.6509315 L70.7251071,51.6247923 Z" id="Shape" fill="#FFFFFF" fill-rule="nonzero"></path>
                    <path d="M25.2691507,12.7297589 L70.7512462,13.9321591 C70.7512462,13.9321591 80.2920306,15.448229 80.4488654,23.4206653 C80.6057002,31.3931016 78.436152,55.5979409 78.436152,55.5979409 C78.436152,55.5979409 75.6654037,64.3806904 67.6929674,65.086447 C58.2828786,65.9228994 23.8837765,68.1447259 23.8837765,68.1447259 C23.8837765,68.1447259 13.0098962,69.713074 13.4281224,53.872758 C13.8463486,38.0324419 15.0226096,25.3811004 15.2055836,22.9240217 C15.226139,22.6183241 15.2967844,22.3180812 15.4146967,22.0352911 C15.9636185,20.1271342 19.2571496,12.9911503 25.2691507,12.7297589 Z" id="Shape" stroke="#EF4A24" stroke-width="3"></path>
                </g>
                <g id="_3L" transform="translate(129.082444, 103.943989)" fill-rule="nonzero">
                    <path d="M2.24057245,5.05620589 C2.24057245,5.05620589 23.1518807,0.690970283 23.9360548,0.272744118 C24.7202289,-0.145482048 27.7785077,0.795526825 27.6739512,2.10248359 C27.5693946,3.40944036 29.5036906,125.688316 29.5036906,125.688316 C29.2106202,126.764533 28.3265534,127.577467 27.2295859,127.779446 C25.4782638,127.96242 8.4878258,127.779446 8.4878258,127.779446 C8.4878258,127.779446 5.87391227,127.256664 5.53410351,125.871289 C5.19429475,124.485915 0.0710242204,7.33031066 0.0710242204,7.33031066 C0.0710242204,7.33031066 0.149441626,5.81424081 2.24057245,5.05620589 Z" id="Shape" fill="#FFFFFF"></path>
                    <path d="M11.5461046,10.9113722 C11.7764832,10.2713797 12.3819898,9.8433491 13.0621745,9.83966766 C13.7110638,9.81615362 14.2788196,10.2725847 14.3952704,10.9113722 L15.4408358,109.612747 C15.28849,110.255743 14.7610127,110.74185 14.1077399,110.841287 C13.0360354,110.841287 12.5916701,109.508191 12.5916701,109.508191 L11.5461046,10.9113722 Z" id="Shape" fill="#EF4A24"></path>
                </g>
                <g id="_4L" transform="translate(164.064000, 130.695677)" fill-rule="nonzero">
                    <path d="M2.70368371,0.470504436 C2.70368371,0.470504436 22.647844,2.32638305 23.614992,2.27410478 C24.58214,2.2218265 27.4574449,2.79688748 27.3528883,4.10384425 C27.2483318,5.41080102 27.3528883,108.268299 27.3528883,108.268299 C27.0598179,109.344516 26.1757511,110.157451 25.0787836,110.359429 C23.3274615,110.542403 3.48785777,110.359429 3.48785777,110.359429 C2.62784194,110.091963 1.96609851,109.40059 1.7365357,108.52969 C1.47514434,107.144316 0.534135471,2.71847008 0.534135471,2.71847008 C0.534135471,2.71847008 0.612552877,1.30695677 2.70368371,0.470504436 Z" id="Shape" fill="#FFFFFF"></path>
                    <path d="M9.99650247,9.51464527 C10.226881,8.87465272 10.8323877,8.44662216 11.5125723,8.44294072 C12.1614617,8.41942668 12.7292174,8.87585775 12.8456682,9.51464527 L12.4013029,99.5378274 C12.2489571,100.180823 11.7214799,100.66693 11.068207,100.766367 C9.99650247,100.766367 9.55213717,99.4332709 9.55213717,99.4332709 L9.99650247,9.51464527 Z" id="Shape" fill="#EF4A24"></path>
                </g>
                <g id="_5A" transform="translate(196.043515, 154.220899)" fill-rule="nonzero">
                    <path d="M79.8550585,13.90602 C76.5876666,-0.39208703 61.034881,0.209113083 61.034881,0.209113083 C61.034881,0.209113083 29.6679186,3.79017463 16.1017074,5.1755488 C0.941008873,6.71775779 0.235252218,18.1144208 0.235252218,18.1144208 L0.235252218,27.5767878 C0.235252218,29.4326664 2.84916575,30.1907013 2.84916575,30.1907013 C2.84916575,30.1907013 16.2324031,30.504371 18.532647,30.3475361 C19.9462628,30.2034217 21.0902516,29.1342733 21.3295344,27.7336226 C21.1501856,25.7161743 21.1501856,23.6867915 21.3295344,21.6693432 C21.6432041,18.7156209 26.5573615,16.6506292 26.5573615,16.6506292 C31.3889209,15.8960032 36.286354,15.6506935 41.1691382,15.9187334 C44.4962967,16.0100232 47.5061929,17.9162908 49.0108788,20.8851691 C49.7892505,24.1620906 50.0014225,27.5480017 49.638218,30.896458 C48.025253,34.7581106 44.3302704,37.3435805 40.1497119,37.5357984 C40.1497119,37.5357984 35.4969458,37.5357984 19.4736558,37.849468 C2.2218265,40.0190162 1.17626109,52.147575 1.17626109,52.147575 C1.17626109,52.147575 1.01942628,58.133437 1.3330959,66.9161865 C3.24550088,75.3680065 9.84557477,81.9680804 18.2973947,83.8804853 C32.5797263,84.0873402 46.8612541,83.4151656 61.0610202,81.8677719 C69.5683167,81.05714 76.6234252,74.9364134 78.6265191,66.628656 C78.6265191,66.628656 80.926763,25.877744 79.8550585,13.90602 Z M62.3679769,62.3156987 C61.1380602,65.9368233 57.7745801,68.4019826 53.9511754,68.4845346 C48.8966585,68.8809941 43.8188546,68.8809941 38.7643377,68.4845346 C34.8927481,67.7699537 31.7507684,64.9411617 30.6350666,61.1655767 L30.6350666,55.7547757 C31.4908716,52.5556186 34.0638823,50.1036907 37.3005461,49.4029658 L54.1602884,49.4029658 C58.2694232,49.5476161 61.7870359,52.3936845 62.7862031,56.382115 C62.9077894,58.3697594 62.7671725,60.3647613 62.3679769,62.3156987 L62.3679769,62.3156987 Z" id="Shape" fill="#FFFFFF"></path>
                    <path d="M67.3605518,16.9381597 C66.7343155,12.0011545 63.1436431,7.95386478 58.316411,6.74389692 C57.3754021,6.74389692 15.3436725,10.1681237 11.4750804,11.2136891 C7.60648839,12.2592545 7.42351444,17.0427162 6.90073173,17.565499 C6.48491531,20.0082536 6.30981534,22.4859182 6.37794903,24.9628743 C6.62622624,25.5622932 7.19420032,25.967989 7.84174061,26.0084397 C8.4530511,25.9963113 8.97425324,25.5619762 9.0964191,24.9628743 L9.51464527,19.7350472 C9.93287143,14.5072201 13.2525416,14.0105765 13.2525416,14.0105765 C13.2525416,14.0105765 51.6509315,9.85445403 57.4799586,10.0635671 C63.3089858,10.2726802 64.6682209,17.0427162 64.6682209,17.0427162 C64.6682209,17.0427162 65.4001166,42.1624253 65.4001166,48.8801831 C63.6226554,44.5149475 56.8787585,42.6329298 56.8787585,42.6329298 C56.8787585,42.6329298 39.2871204,42.0055905 26.7926137,42.6329298 C14.298107,43.260269 14.088994,53.0885839 14.088994,53.0885839 C14.088994,53.0885839 13.7753243,56.3036975 13.5662112,63.544238 C14.4885949,69.4927431 18.7342462,74.3884463 24.4923698,76.1433013 C24.4923698,76.1433013 48.4358178,76.7706405 57.5845152,75.7250751 C66.7332126,74.6795097 68.4061172,64.1715773 68.4061172,64.1715773 C68.4061172,64.1715773 68.3015607,24.7537612 67.3605518,16.9381597 Z M65.0603079,65.0080296 C64.222826,69.1129312 60.8119539,72.1954274 56.6435063,72.614518 C49.3506875,73.4509703 25.4333787,73.1373007 25.4333787,73.1373007 C25.4333787,73.1373007 17.0949945,71.3598395 16.5983509,63.5703772 C16.2109499,60.1833311 16.2109499,56.7631605 16.5983509,53.3761144 C16.5983509,53.3761144 17.3302467,46.6060783 26.3743876,45.6650695 L55.9116105,45.6650695 C61.1502329,46.9146004 64.9001947,51.5216964 65.0603079,56.9048977 C65.4785341,66.2627081 65.0603079,65.0080296 65.0603079,65.0080296 L65.0603079,65.0080296 Z" id="Shape" fill="#EF4A24"></path>
                </g>
                <g id="meet" transform="translate(1.000680, 0.667163)" fill-rule="nonzero" fill="#FFFFFF">
                    <path d="M251.893846,33.3043798 C272.26119,36.5857853 277.617047,13.9554026 277.617047,13.9554026 L267.961417,12.9370354 C267.961417,12.9370354 276.824984,4.2997727 273.317275,0.792063392 C262.002083,-3.31912279 254.458622,9.80649914 252.12015,13.7668161 C244.312667,15.4263775 238.12703,9.4293261 223.907606,33.3043798 C228.871344,32.2927069 233.965844,32.0889269 238.994528,32.7009029 C238.994528,32.7009029 213.459912,68.5323421 191.433007,67.2876711 C179.891512,67.2876711 182.795744,55.9724797 182.795744,55.9724797 C182.795744,55.9724797 219.004356,46.090546 220.513048,27.3450457 C220.513048,16.8596351 204.030586,20.1410405 204.030586,20.1410405 C192.941699,24.3653786 182.305419,23.912771 169.028928,49.7868418 C169.028928,49.7868418 146.172241,68.645494 137.534979,67.4762576 C123.541859,68.3060383 127.238155,55.9347624 127.238155,55.9347624 C127.238155,55.9347624 166.350999,44.3932673 164.955459,26.2889612 C154.243745,7.43030897 116.564157,33.832422 113.282752,50.1640149 C113.282752,50.1640149 93.9337748,64.7606117 88.8042214,63.5536579 C77.2627263,58.8012776 105.588422,37.1515448 103.891143,32.8894894 C104.758641,30.5132993 100.119413,22.3663615 97.9318091,21.5742981 C95.4801843,21.5742981 55.9524493,53.4831376 55.9524493,53.4831376 C55.9524493,53.4831376 70.7753499,32.4745991 70.1718731,27.0810246 C69.5683962,21.68745 65.8343831,21.8383192 63.5713448,20.2919098 C59.7996144,17.5762639 22.08231,52.3893358 15.5949336,58.3863872 C15.5949336,58.3863872 13.3318953,57.5566065 14.161676,55.5198721 C16.2361278,50.3903187 34.1141301,33.9078567 33.5106532,29.3817801 C33.5106532,29.3817801 32.2282648,24.9688555 23.0252426,25.8740708 C13.8222203,26.7792861 -0.812093807,51.672707 0.62116376,60.2722524 C2.35615976,79.6212296 10.0882072,78.7160143 10.0882072,78.7160143 C10.0882072,78.7160143 13.3696126,79.4326431 18.9517737,71.8137476 C24.5339348,64.1948521 45.9196463,40.7346888 47.5792077,42.5828367 C49.2387691,44.4309846 27.8153402,70.7953804 35.4342357,77.1696048 C43.0531312,83.5438292 52.935065,71.2102707 54.7832129,69.6261439 C56.6313608,68.0420171 79.6766338,46.7694575 79.6766338,46.7694575 C79.6766338,46.7694575 62.1758045,72.3040725 70.6244807,77.6599298 C81.5247817,87.9567539 110.567106,60.3854043 111.396887,59.7442102 C112.226667,59.103016 110.567106,80.3378584 127.238155,81.1676391 C146.285393,82.2991582 166.728172,59.2161679 166.728172,59.2161679 C166.728172,59.2161679 165.898392,81.1299218 184.643892,81.0922045 C203.389392,81.0544872 225.189994,56.9531296 225.189994,56.9531296 C225.189994,56.9531296 213.233609,82.9026351 231.375632,82.9026351 C249.517656,82.9026351 270.073586,58.1978007 270.073586,58.1978007 L269.055219,51.4086859 C269.055219,51.4086859 252.384171,67.6648441 241.257566,67.4762576 C230.130961,67.2876711 248.876461,34.5113335 251.893846,33.3043798 Z M206.142755,29.7966705 C217.080774,31.5316665 183.814111,48.202715 183.814111,48.202715 C183.814111,48.202715 195.317889,28.0616745 206.21819,29.7966705 L206.142755,29.7966705 Z M150.057124,29.3817801 C157.600585,31.5693838 133.423793,48.6553227 128.14337,47.7878247 C128.218805,47.9009766 139.19454,27.6090668 150.057124,29.3817801 Z" id="Shape"></path>
                </g>
            </g>
        </g>
    </g>
</svg>